<?xml version="1.0" encoding="UTF-8" standalone="no"?>
<!DOCTYPE svg PUBLIC "-//W3C//DTD SVG 1.1//EN" "http://www.w3.org/Graphics/SVG/1.1/DTD/svg11.dtd">
<svg version="1.1" xmlns="http://www.w3.org/2000/svg" xmlns:xlink="http://www.w3.org/1999/xlink" preserveAspectRatio="xMidYMid meet" viewBox="0 0 300 300" width="300" height="300"><defs><path d="M85 150.52L100 176.5L70 176.5L40 176.5L55 150.52L70 124.54L85 150.52Z" id="e1EZux9B7y"></path><path d="M15 97.5L285 97.5L285 202.5L15 202.5L15 97.5Z" id="lFH8aevoP"></path><path d="M194 176.5L209 150.52L224 124.54L239 150.52L239 150.52L254 176.5" id="b9LuCgKZbm"></path><path d="M177 146.5C177 163.06 163.56 176.5 147 176.5C130.44 176.5 117 163.06 117 146.5C117 129.94 130.44 116.5 147 116.5C163.56 116.5 177 129.94 177 146.5Z" id="b2d2FcN8DC"></path></defs><g><g><g><use xlink:href="#e1EZux9B7y" opacity="1" fill-opacity="0" stroke="#000000" stroke-width="9" stroke-opacity="1"></use></g></g><g><g><use xlink:href="#lFH8aevoP" opacity="1" fill-opacity="0" stroke="#000000" stroke-width="9" stroke-opacity="1"></use></g></g><g><g><use xlink:href="#b9LuCgKZbm" opacity="1" fill-opacity="0" stroke="#000000" stroke-width="9" stroke-opacity="1"></use></g></g><g><g><use xlink:href="#b2d2FcN8DC" opacity="1" fill-opacity="0" stroke="#000000" stroke-width="9" stroke-opacity="1"></use></g></g></g></svg>